<svg id="svg" version="1.1" xmlns="http://www.w3.org/2000/svg" xmlns:xlink="http://www.w3.org/1999/xlink" width="400" height="400" viewBox="0, 0, 400,400"><g id="svgg"><path id="path0" d="M68.500 109.583 L 68.500 182.166 180.292 182.208 L 292.083 182.250 292.126 199.958 L 292.168 217.667 180.334 217.667 L 68.500 217.667 68.500 285.417 L 68.500 353.167 209.001 353.167 L 349.502 353.167 349.459 335.542 L 349.417 317.917 226.708 317.875 L 104.000 317.833 104.000 276.667 L 104.000 235.500 226.708 235.458 L 349.417 235.417 349.417 200.000 L 349.417 164.583 226.708 164.542 L 104.000 164.500 104.000 118.417 L 104.000 72.333 226.750 72.333 L 349.500 72.333 349.500 54.667 L 349.500 37.000 209.000 37.000 L 68.500 37.000 68.500 109.583 " stroke="none" fill="#040404" fill-rule="evenodd"></path><path id="path1" d="M138.722 36.958 C 177.390 36.981,240.615 36.981,279.222 36.958 C 317.829 36.935,286.192 36.916,208.917 36.916 C 131.642 36.916,100.054 36.935,138.722 36.958 M165.292 72.458 C 199.048 72.481,254.285 72.481,288.042 72.458 C 321.798 72.435,294.179 72.416,226.667 72.416 C 159.154 72.416,131.535 72.435,165.292 72.458 M112.833 118.000 L 112.833 151.667 125.667 151.667 L 138.500 151.667 138.500 118.000 L 138.500 84.333 125.667 84.333 L 112.833 84.333 112.833 118.000 M223.208 101.207 L 223.250 118.083 236.083 118.083 L 248.917 118.083 248.917 101.250 L 248.917 84.417 236.041 84.374 L 223.165 84.331 223.208 101.207 M150.000 109.667 L 150.000 126.500 162.917 126.500 L 175.833 126.500 175.833 109.667 L 175.833 92.833 162.917 92.833 L 150.000 92.833 150.000 109.667 M187.077 101.375 C 187.033 101.490,187.017 112.871,187.041 126.667 L 187.083 151.750 199.917 151.750 L 212.750 151.750 212.792 126.458 L 212.834 101.167 199.995 101.167 C 189.877 101.167,187.139 101.211,187.077 101.375 M180.290 182.292 L 291.997 182.334 292.042 191.042 L 292.088 199.750 292.086 191.000 L 292.083 182.250 180.333 182.250 L 68.583 182.250 180.290 182.292 M292.078 208.833 C 292.078 213.737,292.099 215.744,292.125 213.292 C 292.151 210.840,292.151 206.827,292.125 204.375 C 292.099 201.923,292.078 203.929,292.078 208.833 M148.944 243.611 C 148.883 243.672,148.833 255.035,148.833 268.861 L 148.833 294.000 161.750 294.000 L 174.667 294.000 174.667 268.750 L 174.667 243.500 161.861 243.500 C 154.818 243.500,149.006 243.550,148.944 243.611 M223.278 243.611 C 223.217 243.672,223.167 258.822,223.167 277.278 L 223.167 310.833 236.000 310.833 L 248.833 310.833 248.833 277.167 L 248.833 243.500 236.111 243.500 C 229.114 243.500,223.339 243.550,223.278 243.611 M185.833 285.667 L 185.833 302.500 198.750 302.500 L 211.667 302.500 211.667 285.667 L 211.667 268.833 198.750 268.833 L 185.833 268.833 185.833 285.667 M112.778 277.278 C 112.717 277.339,112.667 284.914,112.667 294.111 L 112.667 310.833 125.583 310.833 L 138.500 310.833 138.500 294.000 L 138.500 277.167 125.694 277.167 C 118.651 277.167,112.839 277.217,112.778 277.278 M138.708 353.292 C 177.369 353.315,240.631 353.315,279.292 353.292 C 317.952 353.269,286.321 353.250,209.000 353.250 C 131.679 353.250,100.048 353.269,138.708 353.292 " stroke="none" fill="#3cb4fc" fill-rule="evenodd"></path><path id="path2" d="M0.000 200.000 L 0.000 400.000 200.000 400.000 L 400.000 400.000 400.000 200.000 L 400.000 0.000 200.000 0.000 L 0.000 0.000 0.000 200.000 M349.417 54.667 L 349.417 72.417 226.708 72.458 L 103.999 72.500 104.041 118.458 L 104.083 164.417 226.792 164.458 L 349.500 164.500 349.500 200.000 L 349.500 235.500 226.750 235.500 L 103.999 235.500 104.041 276.625 L 104.083 317.750 226.792 317.792 L 349.500 317.834 349.500 335.583 L 349.500 353.333 209.000 353.333 L 68.500 353.333 68.500 285.500 L 68.500 217.667 180.247 217.667 L 291.994 217.667 292.039 208.708 C 292.063 203.781,292.064 195.831,292.040 191.042 L 291.997 182.333 180.249 182.333 L 68.500 182.333 68.500 109.583 L 68.500 36.833 208.958 36.875 L 349.417 36.917 349.417 54.667 M138.500 118.000 L 138.500 151.667 125.667 151.667 L 112.833 151.667 112.833 118.000 L 112.833 84.333 125.667 84.333 L 138.500 84.333 138.500 118.000 M248.917 101.250 L 248.917 118.083 236.083 118.083 L 223.250 118.083 223.208 101.207 L 223.165 84.331 236.041 84.374 L 248.917 84.417 248.917 101.250 M175.833 109.667 L 175.833 126.500 162.917 126.500 L 150.000 126.500 150.000 109.667 L 150.000 92.833 162.917 92.833 L 175.833 92.833 175.833 109.667 M212.792 126.458 L 212.750 151.750 199.917 151.750 L 187.083 151.750 187.041 126.667 C 187.017 112.871,187.033 101.490,187.077 101.375 C 187.139 101.211,189.877 101.167,199.995 101.167 L 212.834 101.167 212.792 126.458 M174.667 268.750 L 174.667 294.000 161.750 294.000 L 148.833 294.000 148.833 268.861 C 148.833 255.035,148.883 243.672,148.944 243.611 C 149.006 243.550,154.818 243.500,161.861 243.500 L 174.667 243.500 174.667 268.750 M248.833 277.167 L 248.833 310.833 236.000 310.833 L 223.167 310.833 223.167 277.278 C 223.167 258.822,223.217 243.672,223.278 243.611 C 223.339 243.550,229.114 243.500,236.111 243.500 L 248.833 243.500 248.833 277.167 M211.667 285.667 L 211.667 302.500 198.750 302.500 L 185.833 302.500 185.833 285.667 L 185.833 268.833 198.750 268.833 L 211.667 268.833 211.667 285.667 M138.500 294.000 L 138.500 310.833 125.583 310.833 L 112.667 310.833 112.667 294.111 C 112.667 284.914,112.717 277.339,112.778 277.278 C 112.839 277.217,118.651 277.167,125.694 277.167 L 138.500 277.167 138.500 294.000 " stroke="none" fill="#fcfcfc" fill-rule="evenodd"></path></g></svg>